<svg fill="none" height="92" viewBox="0 0 92 92" width="92" xmlns="http://www.w3.org/2000/svg"><path d="m68.5055 31.2845c-1.5118.6513-3.1012 1.1047-4.7289 1.3492.761-.1305 1.8807-1.5015 2.3264-2.0564.6771-.837 1.1932-1.7926 1.5219-2.8181 0-.0761.0761-.1849 0-.2393-.0383-.021-.0813-.032-.125-.032s-.0866.011-.125.032c-1.7674.9579-3.6484 1.689-5.5985 2.1761-.068.0208-.1403.0226-.2093.0054-.0689-.0173-.1319-.053-.1821-.1033-.1518-.181-.3152-.3518-.4892-.5114-.7954-.7133-1.6978-1.2971-2.6742-1.7301-1.3181-.5412-2.7418-.7756-4.1636-.6854-1.3796.0872-2.7265.4575-3.957 1.088-1.2117.6648-2.2767 1.5678-3.1309 2.6549-.8985 1.1189-1.5471 2.4174-1.9024 3.8082-.2929 1.3229-.3261 2.6902-.0978 4.0258 0 .2285 0 .2612-.1957.2285-7.751-1.1424-14.1105-3.8952-19.3068-9.8034-.2283-.2611-.3479-.2611-.5327 0-2.2611 3.4383-1.1632 8.8786 1.6633 11.5661.3805.359.7718.7072 1.1849 1.0336-1.2959-.092-2.5601-.4435-3.7178-1.0336-.2175-.1415-.337-.0653-.3479.1958-.0308.3621-.0308.7261 0 1.0881.2268 1.735.91 3.3786 1.9796 4.7627s2.4873 2.459 4.1081 3.1149c.3951.1694.8068.297 1.2284.3808-1.1997.2364-2.4301.2731-3.6417.1088-.2609-.0544-.3588.087-.2609.3373 1.598 4.3522 5.0658 5.6797 7.6096 6.4195.3479.0545.6958.0545 1.0871.1415 0 0 0 0-.0652.0653-.7501 1.3709-3.7831 2.2958-5.1746 2.7745-2.5398.9131-5.2477 1.2621-7.9358 1.0228-.4239-.0653-.5218-.0544-.6305 0s0 .1741.1196.2829c.5436.3591 1.0871.6746 1.6524.9793 1.6829.9187 3.462 1.6485 5.305 2.1761 9.5447 2.6331 20.2852.6963 27.4492-6.4305 5.6311-5.5926 7.6096-13.3069 7.6096-21.0322 0-.2938.3588-.4678.5653-.6202 1.4247-1.111 2.6806-2.4231 3.7287-3.8952.1815-.2195.2746-.4989.2609-.7834 0-.1632 0-.1306-.2065-.0436z" fill="#fff"/></svg>